<mxfile host="app.diagrams.net" modified="2024-03-31T15:49:41.811Z" agent="Mozilla/5.0 (Windows NT 10.0; Win64; x64) AppleWebKit/537.36 (KHTML, like Gecko) Chrome/123.0.0.0 Safari/537.36 Edg/123.0.0.0" etag="7GpuySqjODEusd-VZ1GH" version="24.2.0" type="device">
  <diagram name="第 1 页" id="7TsgkJayR5R412axOR5a">
    <mxGraphModel dx="2678" dy="1594" grid="1" gridSize="10" guides="1" tooltips="1" connect="1" arrows="1" fold="1" page="1" pageScale="1" pageWidth="827" pageHeight="1169" math="0" shadow="0">
      <root>
        <mxCell id="0" />
        <mxCell id="1" parent="0" />
        <mxCell id="tbdM-9PbUrrWLAOIcfoR-1" value="Nvidia jetson TX2 NX&lt;div&gt;&lt;div&gt;ROS2&lt;/div&gt;&lt;/div&gt;" style="rounded=0;whiteSpace=wrap;html=1;" vertex="1" parent="1">
          <mxGeometry x="1340" y="669" width="136" height="960" as="geometry" />
        </mxCell>
        <mxCell id="tbdM-9PbUrrWLAOIcfoR-4" value="激光雷达SLAM" style="swimlane;whiteSpace=wrap;html=1;" vertex="1" parent="1">
          <mxGeometry x="60" y="660" width="1200" height="960" as="geometry" />
        </mxCell>
        <mxCell id="tbdM-9PbUrrWLAOIcfoR-5" value="结构光摄像头" style="swimlane;whiteSpace=wrap;html=1;" vertex="1" parent="1">
          <mxGeometry x="1550" y="669" width="350" height="950" as="geometry" />
        </mxCell>
        <mxCell id="tbdM-9PbUrrWLAOIcfoR-63" value="" style="edgeStyle=orthogonalEdgeStyle;rounded=0;orthogonalLoop=1;jettySize=auto;html=1;" edge="1" parent="tbdM-9PbUrrWLAOIcfoR-5" source="tbdM-9PbUrrWLAOIcfoR-61" target="tbdM-9PbUrrWLAOIcfoR-62">
          <mxGeometry relative="1" as="geometry" />
        </mxCell>
        <mxCell id="tbdM-9PbUrrWLAOIcfoR-61" value="获取图像" style="rounded=0;whiteSpace=wrap;html=1;" vertex="1" parent="tbdM-9PbUrrWLAOIcfoR-5">
          <mxGeometry x="100" y="71" width="120" height="60" as="geometry" />
        </mxCell>
        <mxCell id="tbdM-9PbUrrWLAOIcfoR-68" value="" style="edgeStyle=orthogonalEdgeStyle;rounded=0;orthogonalLoop=1;jettySize=auto;html=1;" edge="1" parent="tbdM-9PbUrrWLAOIcfoR-5" source="tbdM-9PbUrrWLAOIcfoR-62" target="tbdM-9PbUrrWLAOIcfoR-67">
          <mxGeometry relative="1" as="geometry" />
        </mxCell>
        <mxCell id="tbdM-9PbUrrWLAOIcfoR-62" value="&amp;nbsp;grayscale" style="whiteSpace=wrap;html=1;rounded=0;" vertex="1" parent="tbdM-9PbUrrWLAOIcfoR-5">
          <mxGeometry x="100" y="161" width="120" height="60" as="geometry" />
        </mxCell>
        <mxCell id="tbdM-9PbUrrWLAOIcfoR-70" value="" style="edgeStyle=orthogonalEdgeStyle;rounded=0;orthogonalLoop=1;jettySize=auto;html=1;" edge="1" parent="tbdM-9PbUrrWLAOIcfoR-5" source="tbdM-9PbUrrWLAOIcfoR-67" target="tbdM-9PbUrrWLAOIcfoR-69">
          <mxGeometry relative="1" as="geometry" />
        </mxCell>
        <mxCell id="tbdM-9PbUrrWLAOIcfoR-67" value="Gaussian blur" style="whiteSpace=wrap;html=1;rounded=0;" vertex="1" parent="tbdM-9PbUrrWLAOIcfoR-5">
          <mxGeometry x="100" y="251" width="120" height="60" as="geometry" />
        </mxCell>
        <mxCell id="tbdM-9PbUrrWLAOIcfoR-72" value="" style="edgeStyle=orthogonalEdgeStyle;rounded=0;orthogonalLoop=1;jettySize=auto;html=1;" edge="1" parent="tbdM-9PbUrrWLAOIcfoR-5" source="tbdM-9PbUrrWLAOIcfoR-69" target="tbdM-9PbUrrWLAOIcfoR-71">
          <mxGeometry relative="1" as="geometry" />
        </mxCell>
        <mxCell id="tbdM-9PbUrrWLAOIcfoR-69" value="binarization" style="whiteSpace=wrap;html=1;rounded=0;" vertex="1" parent="tbdM-9PbUrrWLAOIcfoR-5">
          <mxGeometry x="100" y="351" width="120" height="60" as="geometry" />
        </mxCell>
        <mxCell id="tbdM-9PbUrrWLAOIcfoR-74" value="" style="edgeStyle=orthogonalEdgeStyle;rounded=0;orthogonalLoop=1;jettySize=auto;html=1;" edge="1" parent="tbdM-9PbUrrWLAOIcfoR-5" source="tbdM-9PbUrrWLAOIcfoR-71" target="tbdM-9PbUrrWLAOIcfoR-73">
          <mxGeometry relative="1" as="geometry" />
        </mxCell>
        <mxCell id="tbdM-9PbUrrWLAOIcfoR-71" value="morphological operation" style="whiteSpace=wrap;html=1;rounded=0;" vertex="1" parent="tbdM-9PbUrrWLAOIcfoR-5">
          <mxGeometry x="100" y="461" width="120" height="60" as="geometry" />
        </mxCell>
        <mxCell id="tbdM-9PbUrrWLAOIcfoR-77" value="" style="edgeStyle=orthogonalEdgeStyle;rounded=0;orthogonalLoop=1;jettySize=auto;html=1;" edge="1" parent="tbdM-9PbUrrWLAOIcfoR-5" source="tbdM-9PbUrrWLAOIcfoR-73" target="tbdM-9PbUrrWLAOIcfoR-76">
          <mxGeometry relative="1" as="geometry" />
        </mxCell>
        <mxCell id="tbdM-9PbUrrWLAOIcfoR-73" value="Canny Edge Detection" style="whiteSpace=wrap;html=1;rounded=0;" vertex="1" parent="tbdM-9PbUrrWLAOIcfoR-5">
          <mxGeometry x="100" y="551" width="120" height="60" as="geometry" />
        </mxCell>
        <mxCell id="tbdM-9PbUrrWLAOIcfoR-83" style="edgeStyle=orthogonalEdgeStyle;rounded=0;orthogonalLoop=1;jettySize=auto;html=1;entryX=0.5;entryY=0;entryDx=0;entryDy=0;" edge="1" parent="tbdM-9PbUrrWLAOIcfoR-5" source="tbdM-9PbUrrWLAOIcfoR-76" target="tbdM-9PbUrrWLAOIcfoR-80">
          <mxGeometry relative="1" as="geometry" />
        </mxCell>
        <mxCell id="tbdM-9PbUrrWLAOIcfoR-76" value="ROI" style="whiteSpace=wrap;html=1;rounded=0;" vertex="1" parent="tbdM-9PbUrrWLAOIcfoR-5">
          <mxGeometry x="100" y="641" width="120" height="60" as="geometry" />
        </mxCell>
        <mxCell id="tbdM-9PbUrrWLAOIcfoR-78" value="K-Means" style="whiteSpace=wrap;html=1;rounded=0;" vertex="1" parent="tbdM-9PbUrrWLAOIcfoR-5">
          <mxGeometry x="100" y="831" width="120" height="60" as="geometry" />
        </mxCell>
        <mxCell id="tbdM-9PbUrrWLAOIcfoR-84" style="edgeStyle=orthogonalEdgeStyle;rounded=0;orthogonalLoop=1;jettySize=auto;html=1;entryX=0.5;entryY=0;entryDx=0;entryDy=0;" edge="1" parent="tbdM-9PbUrrWLAOIcfoR-5" source="tbdM-9PbUrrWLAOIcfoR-80" target="tbdM-9PbUrrWLAOIcfoR-78">
          <mxGeometry relative="1" as="geometry" />
        </mxCell>
        <mxCell id="tbdM-9PbUrrWLAOIcfoR-80" value="Hough变换" style="whiteSpace=wrap;html=1;rounded=0;" vertex="1" parent="tbdM-9PbUrrWLAOIcfoR-5">
          <mxGeometry x="100" y="741" width="120" height="60" as="geometry" />
        </mxCell>
        <mxCell id="tbdM-9PbUrrWLAOIcfoR-14" style="edgeStyle=orthogonalEdgeStyle;rounded=0;orthogonalLoop=1;jettySize=auto;html=1;" edge="1" parent="1" source="tbdM-9PbUrrWLAOIcfoR-11" target="tbdM-9PbUrrWLAOIcfoR-15">
          <mxGeometry relative="1" as="geometry">
            <mxPoint x="360" y="770" as="targetPoint" />
          </mxGeometry>
        </mxCell>
        <mxCell id="tbdM-9PbUrrWLAOIcfoR-11" value="雷达点云" style="rounded=0;whiteSpace=wrap;html=1;" vertex="1" parent="1">
          <mxGeometry x="100" y="740" width="120" height="60" as="geometry" />
        </mxCell>
        <mxCell id="tbdM-9PbUrrWLAOIcfoR-19" style="edgeStyle=orthogonalEdgeStyle;rounded=0;orthogonalLoop=1;jettySize=auto;html=1;" edge="1" parent="1" source="tbdM-9PbUrrWLAOIcfoR-12" target="tbdM-9PbUrrWLAOIcfoR-20">
          <mxGeometry relative="1" as="geometry">
            <mxPoint x="340" y="950" as="targetPoint" />
          </mxGeometry>
        </mxCell>
        <mxCell id="tbdM-9PbUrrWLAOIcfoR-12" value="IMU数据" style="rounded=0;whiteSpace=wrap;html=1;" vertex="1" parent="1">
          <mxGeometry x="110" y="990" width="120" height="60" as="geometry" />
        </mxCell>
        <mxCell id="tbdM-9PbUrrWLAOIcfoR-22" style="edgeStyle=orthogonalEdgeStyle;rounded=0;orthogonalLoop=1;jettySize=auto;html=1;" edge="1" parent="1" source="tbdM-9PbUrrWLAOIcfoR-13" target="tbdM-9PbUrrWLAOIcfoR-23">
          <mxGeometry relative="1" as="geometry">
            <mxPoint x="360" y="860" as="targetPoint" />
          </mxGeometry>
        </mxCell>
        <mxCell id="tbdM-9PbUrrWLAOIcfoR-13" value="里程计" style="rounded=0;whiteSpace=wrap;html=1;" vertex="1" parent="1">
          <mxGeometry x="110" y="900" width="120" height="60" as="geometry" />
        </mxCell>
        <mxCell id="tbdM-9PbUrrWLAOIcfoR-17" style="edgeStyle=orthogonalEdgeStyle;rounded=0;orthogonalLoop=1;jettySize=auto;html=1;" edge="1" parent="1" source="tbdM-9PbUrrWLAOIcfoR-15" target="tbdM-9PbUrrWLAOIcfoR-18">
          <mxGeometry relative="1" as="geometry">
            <mxPoint x="530" y="770" as="targetPoint" />
          </mxGeometry>
        </mxCell>
        <mxCell id="tbdM-9PbUrrWLAOIcfoR-15" value="VOXEL Fliter" style="rounded=0;whiteSpace=wrap;html=1;" vertex="1" parent="1">
          <mxGeometry x="340" y="740" width="120" height="60" as="geometry" />
        </mxCell>
        <mxCell id="tbdM-9PbUrrWLAOIcfoR-18" value="Adaptive&lt;div&gt;Voxel Fliter&lt;/div&gt;" style="rounded=0;whiteSpace=wrap;html=1;" vertex="1" parent="1">
          <mxGeometry x="550" y="740" width="120" height="60" as="geometry" />
        </mxCell>
        <mxCell id="tbdM-9PbUrrWLAOIcfoR-26" style="edgeStyle=orthogonalEdgeStyle;rounded=0;orthogonalLoop=1;jettySize=auto;html=1;exitX=0.5;exitY=0;exitDx=0;exitDy=0;entryX=0.5;entryY=1;entryDx=0;entryDy=0;" edge="1" parent="1" source="tbdM-9PbUrrWLAOIcfoR-20" target="tbdM-9PbUrrWLAOIcfoR-23">
          <mxGeometry relative="1" as="geometry" />
        </mxCell>
        <mxCell id="tbdM-9PbUrrWLAOIcfoR-20" value="imu Tracker&lt;div&gt;(gravity alignment)&lt;/div&gt;" style="rounded=0;whiteSpace=wrap;html=1;" vertex="1" parent="1">
          <mxGeometry x="360" y="990" width="120" height="60" as="geometry" />
        </mxCell>
        <mxCell id="tbdM-9PbUrrWLAOIcfoR-23" value="PoseExtrapolator" style="rounded=0;whiteSpace=wrap;html=1;" vertex="1" parent="1">
          <mxGeometry x="353" y="900" width="120" height="60" as="geometry" />
        </mxCell>
        <mxCell id="tbdM-9PbUrrWLAOIcfoR-28" value="" style="endArrow=none;html=1;rounded=0;exitX=1;exitY=0.5;exitDx=0;exitDy=0;entryX=1;entryY=0.5;entryDx=0;entryDy=0;" edge="1" parent="1" source="tbdM-9PbUrrWLAOIcfoR-23" target="tbdM-9PbUrrWLAOIcfoR-18">
          <mxGeometry width="50" height="50" relative="1" as="geometry">
            <mxPoint x="620" y="880" as="sourcePoint" />
            <mxPoint x="770" y="780" as="targetPoint" />
            <Array as="points">
              <mxPoint x="770" y="930" />
              <mxPoint x="770" y="770" />
            </Array>
          </mxGeometry>
        </mxCell>
        <mxCell id="tbdM-9PbUrrWLAOIcfoR-29" value="" style="endArrow=classic;html=1;rounded=0;" edge="1" parent="1">
          <mxGeometry width="50" height="50" relative="1" as="geometry">
            <mxPoint x="770" y="820" as="sourcePoint" />
            <mxPoint x="870" y="820" as="targetPoint" />
          </mxGeometry>
        </mxCell>
        <mxCell id="tbdM-9PbUrrWLAOIcfoR-31" style="edgeStyle=orthogonalEdgeStyle;rounded=0;orthogonalLoop=1;jettySize=auto;html=1;" edge="1" parent="1" source="tbdM-9PbUrrWLAOIcfoR-30" target="tbdM-9PbUrrWLAOIcfoR-32">
          <mxGeometry relative="1" as="geometry">
            <mxPoint x="930" y="900" as="targetPoint" />
          </mxGeometry>
        </mxCell>
        <mxCell id="tbdM-9PbUrrWLAOIcfoR-30" value="Scan Matching" style="rounded=0;whiteSpace=wrap;html=1;" vertex="1" parent="1">
          <mxGeometry x="870" y="790" width="120" height="60" as="geometry" />
        </mxCell>
        <mxCell id="tbdM-9PbUrrWLAOIcfoR-34" value="" style="edgeStyle=orthogonalEdgeStyle;rounded=0;orthogonalLoop=1;jettySize=auto;html=1;" edge="1" parent="1" source="tbdM-9PbUrrWLAOIcfoR-32" target="tbdM-9PbUrrWLAOIcfoR-33">
          <mxGeometry relative="1" as="geometry" />
        </mxCell>
        <mxCell id="tbdM-9PbUrrWLAOIcfoR-36" value="" style="edgeStyle=orthogonalEdgeStyle;rounded=0;orthogonalLoop=1;jettySize=auto;html=1;" edge="1" parent="1" source="tbdM-9PbUrrWLAOIcfoR-32">
          <mxGeometry relative="1" as="geometry">
            <mxPoint x="930" y="1040" as="targetPoint" />
          </mxGeometry>
        </mxCell>
        <mxCell id="tbdM-9PbUrrWLAOIcfoR-32" value="Motion Fliter Still" style="rounded=0;whiteSpace=wrap;html=1;" vertex="1" parent="1">
          <mxGeometry x="870" y="900" width="120" height="60" as="geometry" />
        </mxCell>
        <mxCell id="tbdM-9PbUrrWLAOIcfoR-33" value="Dropped" style="rounded=0;whiteSpace=wrap;html=1;" vertex="1" parent="1">
          <mxGeometry x="1070" y="900" width="120" height="60" as="geometry" />
        </mxCell>
        <mxCell id="tbdM-9PbUrrWLAOIcfoR-53" style="edgeStyle=orthogonalEdgeStyle;rounded=0;orthogonalLoop=1;jettySize=auto;html=1;entryX=0.5;entryY=0;entryDx=0;entryDy=0;" edge="1" parent="1" source="tbdM-9PbUrrWLAOIcfoR-37" target="tbdM-9PbUrrWLAOIcfoR-52">
          <mxGeometry relative="1" as="geometry" />
        </mxCell>
        <mxCell id="tbdM-9PbUrrWLAOIcfoR-37" value="Submaps" style="swimlane;" vertex="1" parent="1">
          <mxGeometry x="850" y="1040" width="200" height="200" as="geometry" />
        </mxCell>
        <mxCell id="tbdM-9PbUrrWLAOIcfoR-38" value="Voxel Grid" style="rounded=0;whiteSpace=wrap;html=1;" vertex="1" parent="tbdM-9PbUrrWLAOIcfoR-37">
          <mxGeometry x="10" y="69" width="120" height="60" as="geometry" />
        </mxCell>
        <mxCell id="tbdM-9PbUrrWLAOIcfoR-39" value="Voxel Grid" style="rounded=0;whiteSpace=wrap;html=1;" vertex="1" parent="1">
          <mxGeometry x="870" y="1119" width="120" height="60" as="geometry" />
        </mxCell>
        <mxCell id="tbdM-9PbUrrWLAOIcfoR-40" value="Voxel Grid" style="rounded=0;whiteSpace=wrap;html=1;" vertex="1" parent="1">
          <mxGeometry x="880" y="1129" width="120" height="60" as="geometry" />
        </mxCell>
        <mxCell id="tbdM-9PbUrrWLAOIcfoR-41" value="Voxel Grid" style="rounded=0;whiteSpace=wrap;html=1;" vertex="1" parent="1">
          <mxGeometry x="890" y="1139" width="120" height="60" as="geometry" />
        </mxCell>
        <mxCell id="tbdM-9PbUrrWLAOIcfoR-42" value="" style="endArrow=classic;html=1;rounded=0;" edge="1" parent="1" target="tbdM-9PbUrrWLAOIcfoR-41">
          <mxGeometry width="50" height="50" relative="1" as="geometry">
            <mxPoint x="510" y="770" as="sourcePoint" />
            <mxPoint x="600" y="1080" as="targetPoint" />
            <Array as="points">
              <mxPoint x="510" y="1170" />
            </Array>
          </mxGeometry>
        </mxCell>
        <mxCell id="tbdM-9PbUrrWLAOIcfoR-43" value="" style="endArrow=classic;html=1;rounded=0;entryX=0.5;entryY=0;entryDx=0;entryDy=0;" edge="1" parent="1" target="tbdM-9PbUrrWLAOIcfoR-23">
          <mxGeometry width="50" height="50" relative="1" as="geometry">
            <mxPoint x="930" y="870" as="sourcePoint" />
            <mxPoint x="800" y="960" as="targetPoint" />
            <Array as="points">
              <mxPoint x="413" y="870" />
            </Array>
          </mxGeometry>
        </mxCell>
        <mxCell id="tbdM-9PbUrrWLAOIcfoR-44" value="Global SLAM" style="swimlane;whiteSpace=wrap;html=1;" vertex="1" parent="1">
          <mxGeometry x="320" y="1189" width="290" height="381" as="geometry" />
        </mxCell>
        <mxCell id="tbdM-9PbUrrWLAOIcfoR-50" style="edgeStyle=orthogonalEdgeStyle;rounded=0;orthogonalLoop=1;jettySize=auto;html=1;entryX=0.5;entryY=0;entryDx=0;entryDy=0;" edge="1" parent="tbdM-9PbUrrWLAOIcfoR-44" source="tbdM-9PbUrrWLAOIcfoR-47" target="tbdM-9PbUrrWLAOIcfoR-48">
          <mxGeometry relative="1" as="geometry" />
        </mxCell>
        <mxCell id="tbdM-9PbUrrWLAOIcfoR-47" value="Compute Constrains" style="rounded=0;whiteSpace=wrap;html=1;" vertex="1" parent="tbdM-9PbUrrWLAOIcfoR-44">
          <mxGeometry x="60" y="41" width="120" height="60" as="geometry" />
        </mxCell>
        <mxCell id="tbdM-9PbUrrWLAOIcfoR-51" style="edgeStyle=orthogonalEdgeStyle;rounded=0;orthogonalLoop=1;jettySize=auto;html=1;entryX=0.5;entryY=0;entryDx=0;entryDy=0;" edge="1" parent="tbdM-9PbUrrWLAOIcfoR-44" source="tbdM-9PbUrrWLAOIcfoR-48" target="tbdM-9PbUrrWLAOIcfoR-49">
          <mxGeometry relative="1" as="geometry" />
        </mxCell>
        <mxCell id="tbdM-9PbUrrWLAOIcfoR-48" value="Spare Pose&lt;div&gt;Adjustment&lt;/div&gt;" style="rounded=0;whiteSpace=wrap;html=1;" vertex="1" parent="tbdM-9PbUrrWLAOIcfoR-44">
          <mxGeometry x="60" y="161" width="120" height="60" as="geometry" />
        </mxCell>
        <mxCell id="tbdM-9PbUrrWLAOIcfoR-49" value="Extrapolate all&lt;div&gt;poses that were added later&lt;/div&gt;" style="rounded=0;whiteSpace=wrap;html=1;" vertex="1" parent="tbdM-9PbUrrWLAOIcfoR-44">
          <mxGeometry x="60" y="281" width="120" height="60" as="geometry" />
        </mxCell>
        <mxCell id="tbdM-9PbUrrWLAOIcfoR-58" value="" style="endArrow=classic;html=1;rounded=0;" edge="1" parent="tbdM-9PbUrrWLAOIcfoR-44">
          <mxGeometry width="50" height="50" relative="1" as="geometry">
            <mxPoint x="-80" y="121" as="sourcePoint" />
            <mxPoint x="120" y="121" as="targetPoint" />
          </mxGeometry>
        </mxCell>
        <mxCell id="tbdM-9PbUrrWLAOIcfoR-45" value="Local SLAM" style="swimlane;whiteSpace=wrap;html=1;" vertex="1" parent="1">
          <mxGeometry x="800" y="740" width="420" height="530" as="geometry" />
        </mxCell>
        <mxCell id="tbdM-9PbUrrWLAOIcfoR-54" style="edgeStyle=orthogonalEdgeStyle;rounded=0;orthogonalLoop=1;jettySize=auto;html=1;entryX=1;entryY=0.5;entryDx=0;entryDy=0;" edge="1" parent="1" source="tbdM-9PbUrrWLAOIcfoR-52" target="tbdM-9PbUrrWLAOIcfoR-47">
          <mxGeometry relative="1" as="geometry" />
        </mxCell>
        <mxCell id="tbdM-9PbUrrWLAOIcfoR-52" value="InsertionResult" style="rounded=0;whiteSpace=wrap;html=1;" vertex="1" parent="1">
          <mxGeometry x="830" y="1390" width="120" height="60" as="geometry" />
        </mxCell>
        <mxCell id="tbdM-9PbUrrWLAOIcfoR-55" value="" style="endArrow=classic;html=1;rounded=0;" edge="1" parent="1">
          <mxGeometry width="50" height="50" relative="1" as="geometry">
            <mxPoint x="280" y="770" as="sourcePoint" />
            <mxPoint x="280" y="1310" as="targetPoint" />
          </mxGeometry>
        </mxCell>
        <mxCell id="tbdM-9PbUrrWLAOIcfoR-56" value="" style="endArrow=classic;html=1;rounded=0;" edge="1" parent="1">
          <mxGeometry width="50" height="50" relative="1" as="geometry">
            <mxPoint x="260" y="930" as="sourcePoint" />
            <mxPoint x="260" y="1310" as="targetPoint" />
          </mxGeometry>
        </mxCell>
        <mxCell id="tbdM-9PbUrrWLAOIcfoR-57" value="" style="endArrow=classic;html=1;rounded=0;" edge="1" parent="1">
          <mxGeometry width="50" height="50" relative="1" as="geometry">
            <mxPoint x="240" y="1020" as="sourcePoint" />
            <mxPoint x="240" y="1310" as="targetPoint" />
          </mxGeometry>
        </mxCell>
        <mxCell id="tbdM-9PbUrrWLAOIcfoR-60" value="" style="shape=doubleArrow;whiteSpace=wrap;html=1;" vertex="1" parent="1">
          <mxGeometry x="1260" y="1109" width="80" height="111" as="geometry" />
        </mxCell>
        <mxCell id="tbdM-9PbUrrWLAOIcfoR-85" value="" style="shape=doubleArrow;whiteSpace=wrap;html=1;" vertex="1" parent="1">
          <mxGeometry x="1476" y="1093.5" width="80" height="111" as="geometry" />
        </mxCell>
      </root>
    </mxGraphModel>
  </diagram>
</mxfile>
